<?xml version="1.0" standalone="no"?>
<!DOCTYPE svg PUBLIC "-//W3C//DTD SVG 20010904//EN"
 "http://www.w3.org/TR/2001/REC-SVG-20010904/DTD/svg10.dtd">
<svg version="1.0" xmlns="http://www.w3.org/2000/svg"
 width="260.000000pt" height="260.000000pt" viewBox="0 0 260.000000 260.000000"
 preserveAspectRatio="xMidYMid meet">
<metadata>
Created by potrace 1.11, written by Peter Selinger 2001-2013
</metadata>
<g transform="translate(0.000000,260.000000) scale(0.100000,-0.100000)"
fill="#000000" stroke="none">
<path d="M0 1300 l0 -1300 1300 0 1300 0 0 1300 0 1300 -1300 0 -1300 0 0
-1300z m1848 1121 c32 -27 82 -75 111 -107 421 -469 464 -1161 103 -1669 -178
-249 -427 -420 -732 -501 -129 -35 -379 -44 -520 -20 -168 30 -352 103 -495
199 -132 88 -133 95 -27 234 42 56 84 111 92 124 8 12 20 27 27 34 7 7 222
289 479 626 257 338 510 669 561 737 52 67 91 122 87 122 -4 0 -1 6 8 13 8 6
48 55 88 107 93 122 120 150 141 150 10 0 44 -22 77 -49z"/>
<path d="M1726 2255 l-48 -65 48 -53 c257 -284 307 -714 126 -1090 -197 -410
-626 -660 -1037 -605 -91 12 -235 60 -307 103 l-57 33 -50 -65 c-28 -36 -48
-69 -45 -74 3 -5 40 -30 82 -54 264 -155 568 -199 867 -126 354 87 664 362
803 716 62 157 77 240 76 440 0 161 -3 191 -26 281 -46 177 -110 313 -211 449
-47 63 -153 175 -165 175 -5 0 -30 -29 -56 -65z"/>
<path d="M1388 1809 c-119 -156 -215 -285 -214 -287 2 -1 90 20 197 48 107 27
250 64 319 81 69 17 128 34 132 38 11 10 -25 121 -67 206 -21 41 -63 102 -94
136 l-56 61 -217 -283z"/>
<path d="M1805 1561 c-11 -4 -161 -43 -332 -87 -172 -43 -313 -82 -313 -85 0
-9 498 -403 514 -407 22 -5 113 190 140 299 26 102 39 280 21 285 -5 1 -19 -1
-30 -5z"/>
<path d="M1080 931 c0 -302 2 -361 14 -361 28 0 153 43 216 75 109 55 298 208
289 233 -4 9 -83 73 -399 323 -52 41 -101 78 -107 83 -10 6 -13 -68 -13 -353z"/>
<path d="M742 959 c-117 -153 -210 -284 -207 -289 11 -19 122 -69 195 -89 39
-11 109 -23 156 -27 l85 -7 -6 344 c-4 189 -8 345 -9 346 -1 1 -97 -124 -214
-278z"/>
</g>
</svg>
